<svg xmlns="http://www.w3.org/2000/svg" xmlns:xlink="http://www.w3.org/1999/xlink" viewBox="0 0 283.72 117.44"><defs><style>.cls-1,.cls-4{fill:#fff;}.cls-1{fill-rule:evenodd;}.cls-2{mask:url(#mask);}.cls-3{isolation:isolate;}</style><mask id="mask" x="0" y="0" width="117.36" height="117.44" maskUnits="userSpaceOnUse"><g id="mask-2"><polygon id="path-1" class="cls-1" points="0 0 117.36 0 117.36 117.44 0 117.44 0 0"/></g></mask></defs><title>logo</title><g id="Layer_2" data-name="Layer 2"><g id="Layer_1-2" data-name="Layer 1"><g id="PRS---Homepage-"><g id="::-Hero"><g id="Logo"><g id="Logo-Circle"><g id="Group-3"><g class="cls-2"><path id="Fill-1" class="cls-1" d="M115.32,43.46H95.53V72.17h5.64v-11h12.34V55.28H101.33V49.2h13.89V44.39a48.52,48.52,0,0,1,1.84,20,57.71,57.71,0,0,1-17.37,36.27A58.67,58.67,0,1,1,65.61.41,57.29,57.29,0,0,1,101,18.1,57.92,57.92,0,0,1,115.32,43.46ZM86.71,103.72A57.23,57.23,0,0,1,66.5,108.9c-9.84.68-19.27-.74-28-5.39C22.36,94.89,13.58,81.24,12.08,63.07,10.86,48.35,15.19,35.32,25.3,24.45c15.39-16.57,39.63-19,58.62-11.3.53.22,1,.72,1.7.47-.05-.11-.05-.25-.12-.3-.32-.22-.65-.43-1-.62A51.49,51.49,0,0,0,47.7,7.2,52.89,52.89,0,0,0,7.05,70.32c7.45,35.18,48.11,52.88,78.79,34.27l2-1.35A8.31,8.31,0,0,0,86.71,103.72ZM71.08,66.57h-14v-6h12V54.8h-12V49.06H70.88V43.55H51.22V69.76l-.27,0c-3.4-8.88-6.8-17.76-10.16-26.52H35.41c-3.69,9.64-7.35,19.23-11,28.92h5.86c.79-2.11,1.56-4.19,2.34-6.28H43.5l2.33,6.22H71.08Zm9.08-.11v-23H74.48V72.2H93V66.46Z"/></g></g><path id="Fill-66" class="cls-1" d="M35,59.44l3.49-9c1.23,3.14,2.35,6,3.51,9Z"/></g><g id="Aircraft-Engine-Leas" class="cls-3"><g class="cls-3"><path class="cls-4" d="M136.42,40h2.17l5.85,13.4H142l-1.35-3.21h-6.29L133,53.44h-2.39Zm3.34,8.12-2.29-5.32-2.28,5.32Z"/><path class="cls-4" d="M145.52,39.68H148v2.19h-2.47Zm.1,3.73h2.3v10h-2.3Z"/><path class="cls-4" d="M150,43.41h2.3v2.26a3.55,3.55,0,0,1,3.55-2.45v2.43h-.13c-2,0-3.42,1.31-3.42,4v3.82H150Z"/><path class="cls-4" d="M155.94,48.48v0a5.17,5.17,0,0,1,5.22-5.24,5.06,5.06,0,0,1,4,1.73l-1.45,1.53a3.35,3.35,0,0,0-2.58-1.25,3,3,0,0,0-2.91,3.19v0a3,3,0,0,0,3,3.21,3.51,3.51,0,0,0,2.61-1.23l1.38,1.36a5,5,0,0,1-4.1,1.88A5.11,5.11,0,0,1,155.94,48.48Z"/><path class="cls-4" d="M166.37,43.41h2.29v2.26a3.56,3.56,0,0,1,3.56-2.45v2.43h-.14c-2,0-3.42,1.31-3.42,4v3.82h-2.29Z"/><path class="cls-4" d="M172.1,50.55v0c0-2.16,1.7-3.23,4.15-3.23a8.25,8.25,0,0,1,2.69.42v-.25c0-1.42-.87-2.18-2.49-2.18a6.94,6.94,0,0,0-2.86.62l-.61-1.8a8.59,8.59,0,0,1,3.78-.82,4.49,4.49,0,0,1,3.32,1.12,4.19,4.19,0,0,1,1.09,3.1v5.95h-2.25V52.18a4,4,0,0,1-3.26,1.47C173.78,53.65,172.1,52.56,172.1,50.55Zm6.88-.72v-.69a6.57,6.57,0,0,0-2.28-.4c-1.48,0-2.35.63-2.35,1.68v0c0,1,.85,1.52,2,1.52C177.82,52,179,51.1,179,49.83Z"/><path class="cls-4" d="M183.47,45.38h-1.28V43.46h1.28v-.74a3.4,3.4,0,0,1,.81-2.47,3,3,0,0,1,2.26-.8,6.16,6.16,0,0,1,1.86.27v1.94a4,4,0,0,0-1.34-.25c-.88,0-1.33.48-1.33,1.52v.55h2.66v1.9h-2.63v8.06h-2.29Z"/><path class="cls-4" d="M189.6,50.66V45.38h-1.27v-2h1.27V40.65h2.3v2.76h2.7v2h-2.7V50.3a1.1,1.1,0,0,0,1.24,1.26,3.07,3.07,0,0,0,1.42-.35v1.88a3.92,3.92,0,0,1-2.07.52C190.8,53.61,189.6,52.87,189.6,50.66Z"/><path class="cls-4" d="M201,40.14h9.85v2.09H203.3v3.46H210v2.09H203.3v3.57h7.62v2.09H201Z"/><path class="cls-4" d="M212.46,43.41h2.3v1.53a3.61,3.61,0,0,1,3.13-1.74c2.26,0,3.57,1.52,3.57,3.83v6.41h-2.29v-5.7c0-1.56-.78-2.45-2.15-2.45a2.23,2.23,0,0,0-2.26,2.49v5.66h-2.3Z"/><path class="cls-4" d="M223.25,55.32l.86-1.73a6.6,6.6,0,0,0,3.57,1.06c2,0,3.17-1.06,3.17-3.07V50.8a4.21,4.21,0,0,1-3.53,1.84A4.51,4.51,0,0,1,222.76,48v0a4.52,4.52,0,0,1,4.56-4.71,4.32,4.32,0,0,1,3.51,1.71v-1.5h2.3v8a5.17,5.17,0,0,1-1.27,3.79,5.66,5.66,0,0,1-4.13,1.34A8.62,8.62,0,0,1,223.25,55.32Zm7.62-7.39v0a2.81,2.81,0,0,0-3-2.76,2.72,2.72,0,0,0-2.85,2.76v0a2.73,2.73,0,0,0,2.85,2.75A2.8,2.8,0,0,0,230.87,47.93Z"/><path class="cls-4" d="M235.09,39.68h2.47v2.19h-2.47Zm.09,3.73h2.3v10h-2.3Z"/><path class="cls-4" d="M239.51,43.41h2.3v1.53A3.64,3.64,0,0,1,245,43.2c2.26,0,3.57,1.52,3.57,3.83v6.41h-2.3v-5.7c0-1.56-.78-2.45-2.15-2.45a2.23,2.23,0,0,0-2.26,2.49v5.66h-2.3Z"/><path class="cls-4" d="M249.78,48.46v0a5,5,0,0,1,4.9-5.22c3.19,0,4.8,2.51,4.8,5.39,0,.21,0,.42,0,.65h-7.37A2.8,2.8,0,0,0,255,51.78a3.64,3.64,0,0,0,2.72-1.19L259,51.78a5.08,5.08,0,0,1-4.11,1.88A5,5,0,0,1,249.78,48.46Zm7.42-.74a2.6,2.6,0,0,0-2.54-2.64,2.72,2.72,0,0,0-2.61,2.64Z"/></g><g class="cls-3"><path class="cls-4" d="M131.71,59.14h2.34V70.31h7v2.13h-9.33Z"/><path class="cls-4" d="M141.5,67.46v0a5,5,0,0,1,4.9-5.22c3.19,0,4.8,2.51,4.8,5.39,0,.21,0,.42,0,.65h-7.37a2.8,2.8,0,0,0,2.89,2.54,3.64,3.64,0,0,0,2.72-1.19l1.35,1.19a5.08,5.08,0,0,1-4.11,1.88A5,5,0,0,1,141.5,67.46Zm7.42-.74a2.6,2.6,0,0,0-2.54-2.64,2.72,2.72,0,0,0-2.61,2.64Z"/><path class="cls-4" d="M151.89,69.55v0c0-2.16,1.69-3.23,4.14-3.23a8.32,8.32,0,0,1,2.7.42v-.25c0-1.42-.88-2.18-2.49-2.18a7,7,0,0,0-2.87.62l-.61-1.8a8.62,8.62,0,0,1,3.78-.82,4.53,4.53,0,0,1,3.33,1.12,4.19,4.19,0,0,1,1.08,3.1v6h-2.24V71.18a4.08,4.08,0,0,1-3.27,1.47C153.56,72.65,151.89,71.56,151.89,69.55Zm6.87-.72v-.69a6.48,6.48,0,0,0-2.28-.4c-1.48,0-2.35.63-2.35,1.68v0c0,1,.85,1.52,2,1.52C157.61,71,158.76,70.1,158.76,68.83Z"/><path class="cls-4" d="M161.92,71.13l1-1.56a5.71,5.71,0,0,0,3.28,1.23c1,0,1.56-.42,1.56-1.08v0c0-.78-1.06-1-2.24-1.4-1.48-.42-3.14-1-3.14-3v0c0-1.9,1.58-3.05,3.57-3.05a7,7,0,0,1,3.69,1.13L168.76,65a5.83,5.83,0,0,0-2.83-1c-.89,0-1.41.42-1.41,1v0c0,.75,1.09,1,2.26,1.43,1.47.46,3.12,1.12,3.12,2.92v0c0,2.11-1.64,3.16-3.72,3.16A7.09,7.09,0,0,1,161.92,71.13Z"/><path class="cls-4" d="M170.74,67.46v0a5,5,0,0,1,4.9-5.22c3.19,0,4.8,2.51,4.8,5.39,0,.21,0,.42,0,.65H173a2.8,2.8,0,0,0,2.89,2.54,3.64,3.64,0,0,0,2.72-1.19L180,70.78a5.08,5.08,0,0,1-4.11,1.88A5,5,0,0,1,170.74,67.46Zm7.42-.74a2.6,2.6,0,0,0-2.54-2.64A2.72,2.72,0,0,0,173,66.72Z"/><path class="cls-4" d="M186.79,59.14h9.9v2.13h-7.56v3.62h6.7V67h-6.7v5.42h-2.34Z"/><path class="cls-4" d="M198.06,58.68h2.47v2.19h-2.47Zm.09,3.73h2.3v10h-2.3Z"/><path class="cls-4" d="M202.48,62.41h2.3v1.53a3.64,3.64,0,0,1,3.14-1.74c2.26,0,3.57,1.52,3.57,3.83v6.41h-2.3v-5.7c0-1.56-.78-2.45-2.15-2.45a2.23,2.23,0,0,0-2.26,2.49v5.66h-2.3Z"/><path class="cls-4" d="M212.63,69.55v0c0-2.16,1.69-3.23,4.14-3.23a8.32,8.32,0,0,1,2.7.42v-.25c0-1.42-.88-2.18-2.49-2.18a7,7,0,0,0-2.87.62l-.61-1.8a8.66,8.66,0,0,1,3.78-.82,4.5,4.5,0,0,1,3.33,1.12,4.19,4.19,0,0,1,1.08,3.1v6h-2.24V71.18a4.07,4.07,0,0,1-3.27,1.47C214.3,72.65,212.63,71.56,212.63,69.55Zm6.88-.72v-.69a6.57,6.57,0,0,0-2.28-.4c-1.48,0-2.36.63-2.36,1.68v0c0,1,.86,1.52,2,1.52C218.35,71,219.51,70.1,219.51,68.83Z"/><path class="cls-4" d="M223.48,62.41h2.3v1.53a3.61,3.61,0,0,1,3.13-1.74c2.26,0,3.57,1.52,3.57,3.83v6.41h-2.3v-5.7c0-1.56-.77-2.45-2.14-2.45a2.23,2.23,0,0,0-2.26,2.49v5.66h-2.3Z"/><path class="cls-4" d="M233.74,67.48v0A5.17,5.17,0,0,1,239,62.2a5.06,5.06,0,0,1,4,1.73l-1.44,1.53a3.39,3.39,0,0,0-2.59-1.25A3,3,0,0,0,236,67.4v0a3,3,0,0,0,3,3.21,3.51,3.51,0,0,0,2.6-1.23L243,70.78a5.26,5.26,0,0,1-9.29-3.3Z"/><path class="cls-4" d="M243.33,67.46v0a5,5,0,0,1,4.9-5.22c3.2,0,4.81,2.51,4.81,5.39,0,.21,0,.42,0,.65h-7.37a2.8,2.8,0,0,0,2.89,2.54,3.64,3.64,0,0,0,2.72-1.19l1.35,1.19a5.09,5.09,0,0,1-4.11,1.88A5,5,0,0,1,243.33,67.46Zm7.43-.74a2.6,2.6,0,0,0-2.54-2.64,2.72,2.72,0,0,0-2.61,2.64Z"/><path class="cls-4" d="M259.52,59.14h2.34v13.3h-2.34Z"/><path class="cls-4" d="M264.18,62.41h2.29v1.53a3.64,3.64,0,0,1,3.14-1.74c2.26,0,3.57,1.52,3.57,3.83v6.41h-2.3v-5.7c0-1.56-.78-2.45-2.15-2.45a2.23,2.23,0,0,0-2.26,2.49v5.66h-2.29Z"/><path class="cls-4" d="M274.44,67.48v0a5.17,5.17,0,0,1,5.22-5.24,5.06,5.06,0,0,1,4,1.73l-1.45,1.53a3.35,3.35,0,0,0-2.58-1.25,3,3,0,0,0-2.91,3.19v0a3,3,0,0,0,3,3.21,3.51,3.51,0,0,0,2.6-1.23l1.38,1.36a5,5,0,0,1-4.1,1.88A5.11,5.11,0,0,1,274.44,67.48Z"/></g></g></g></g></g></g></g></svg>